REM MD5 be08cf899fb410985ffec168d6e61f53
FILE "Registered Users Demo 03 (Europe).bin" BINARY
  TRACK 01 MODE2/2352
    INDEX 01 00:00:00
  TRACK 02 AUDIO
    INDEX 00 30:56:45
    INDEX 01 30:58:45
  TRACK 03 AUDIO
    INDEX 00 32:56:62
    INDEX 01 32:58:62
REM LEADOUT 36:00:18
